<svg width="28" height="24" viewBox="0 0 28 24" fill="none" xmlns="http://www.w3.org/2000/svg">
<path d="M15.4073 0L16.6408 2.13735H10.4971L11.7307 0H15.4073Z" fill="#8E3DBC"/>
<path d="M20.3486 0L21.5822 2.13735H18.0947V0H20.3486Z" fill="#8E3DBC"/>
<path d="M11.7177 8.54785L9.86621 11.7539L11.7177 14.9599H15.4185L17.27 11.7539L15.4185 8.54785H11.7177Z" fill="#8E3DBC"/>
<path d="M20.3574 14.9599L22.2089 11.7539L20.3574 8.54785H18.0947V14.9599H20.3574Z" fill="#8E3DBC"/>
<path d="M25.2895 14.9599L27.141 11.7539L25.2895 8.54785H24.6738V14.9599H25.2895Z" fill="#8E3DBC"/>
<path d="M20.364 4.27441L22.2089 7.46725L21.9956 7.83447H18.0947V4.27441H20.364Z" fill="#8E3DBC"/>
<path d="M25.2961 4.27441L27.141 7.46725L26.9299 7.83447H24.6738V4.27441H25.2961Z" fill="#8E3DBC"/>
<path d="M6.79609 0L5.5625 2.13735H9.04779V0H6.79609Z" fill="#8E3DBC"/>
<path d="M6.78607 14.9599L4.93457 11.7539L6.78607 8.54785H9.04657V14.9599H6.78607Z" fill="#8E3DBC"/>
<path d="M1.8493 14.9599L0 11.7539L1.8493 8.54785H2.46719V14.9599H1.8493Z" fill="#8E3DBC"/>
<path d="M6.77947 4.27441L4.93457 7.46725L5.14567 7.83447H9.04657V4.27441H6.77947Z" fill="#8E3DBC"/>
<path d="M1.8427 4.27441L0 7.46725L0.211095 7.83447H2.46719V4.27441H1.8427Z" fill="#8E3DBC"/>
<path d="M11.7307 23.5065L10.4971 21.3691H16.6408L15.4073 23.5065H11.7307Z" fill="#8E3DBC"/>
<path d="M6.79609 23.5065L5.5625 21.3691H9.04779V23.5065H6.79609Z" fill="#8E3DBC"/>
<path d="M6.77947 19.2332L4.93457 16.0381L5.14787 15.6709H9.04657V19.2332H6.77947Z" fill="#8E3DBC"/>
<path d="M1.8427 19.2332L0 16.0381L0.211095 15.6709H2.46719V19.2332H1.8427Z" fill="#8E3DBC"/>
<path d="M20.3486 23.5065L21.5822 21.3691H18.0947V23.5065H20.3486Z" fill="#8E3DBC"/>
<path d="M20.364 19.2332L22.2089 16.0381L21.9956 15.6709H18.0947V19.2332H20.364Z" fill="#8E3DBC"/>
<path d="M25.2961 19.2332L27.141 16.0381L26.9299 15.6709H24.6738V19.2332H25.2961Z" fill="#8E3DBC"/>
<path d="M11.7111 4.27441L9.86621 7.46725L10.0795 7.83447H17.0589L17.27 7.46725L15.4251 4.27441H11.7111Z" fill="#8E3DBC"/>
<path d="M15.4273 19.2332L17.27 16.0381L17.0589 15.6709H10.0795L9.86621 16.0381L11.7111 19.2332H15.4273Z" fill="#8E3DBC"/>
</svg>